<svg width="104" height="104" viewBox="0 0 104 104" fill="none" xmlns="http://www.w3.org/2000/svg">
<g id="Group 220">
<circle id="Ellipse 14" cx="52" cy="52" r="52" fill="#FF5D24" fill-opacity="0.73"/>
<circle id="Ellipse 15" cx="52" cy="51.9999" r="41.6" fill="#FF5D24" fill-opacity="0.73"/>
<path id="Fill 4" d="M60.6667 52.0115C60.6667 52.6138 60.4795 53.2185 60.1053 53.7027C60.0351 53.7977 59.7077 54.1892 59.4504 54.444L59.31 54.583C57.3453 56.6936 52.4567 59.8675 49.9774 60.8845C49.9774 60.9077 48.5038 61.5124 47.8021 61.5332H47.7085C46.6326 61.5332 45.6268 60.9332 45.1122 59.9602C44.8315 59.425 44.5742 57.8728 44.5509 57.8519C44.3403 56.4596 44.2 54.3282 44.2 51.9883C44.2 49.5349 44.3403 47.3085 44.5976 45.9416C44.5976 45.9185 44.8549 44.6674 45.0187 44.2504C45.2759 43.6504 45.7438 43.1384 46.3285 42.8141C46.7963 42.5847 47.2875 42.4666 47.8021 42.4666C48.3401 42.492 49.3458 42.8372 49.7435 42.9994C52.3632 44.0188 57.3687 47.3548 59.2866 49.3936C59.6141 49.7179 59.965 50.1141 60.0585 50.2044C60.4562 50.7141 60.6667 51.3396 60.6667 52.0115Z" fill="white"/>
</g>
</svg>
